<svg width="26" height="26" viewBox="0 0 26 26" fill="none" xmlns="http://www.w3.org/2000/svg">
<path d="M3.89961 22.919C3.70182 22.8939 3.51996 22.7976 3.38814 22.648C3.25632 22.4984 3.18359 22.3059 3.18359 22.1065C3.18359 21.9071 3.25632 21.7146 3.38814 21.565C3.51996 21.4154 3.70182 21.3191 3.89961 21.294H22.0996C22.2974 21.3191 22.4793 21.4154 22.6111 21.565C22.7429 21.7146 22.8156 21.9071 22.8156 22.1065C22.8156 22.3059 22.7429 22.4984 22.6111 22.648C22.4793 22.7976 22.2974 22.8939 22.0996 22.919H3.89961ZM13.8186 6.019V18.577C13.7935 18.7748 13.6972 18.9567 13.5476 19.0885C13.398 19.2203 13.2055 19.293 13.0061 19.293C12.8067 19.293 12.6142 19.2203 12.4646 19.0885C12.315 18.9567 12.2187 18.7748 12.1936 18.577V6.019L5.99261 12.22C5.9175 12.2951 5.82832 12.3547 5.73018 12.3954C5.63203 12.436 5.52684 12.4569 5.42061 12.4569C5.31438 12.4569 5.20919 12.436 5.11105 12.3954C5.01291 12.3547 4.92373 12.2951 4.84861 12.22C4.7735 12.1449 4.71391 12.0557 4.67326 11.9576C4.63261 11.8594 4.61168 11.7542 4.61168 11.648C4.61168 11.5418 4.63261 11.4366 4.67326 11.3384C4.71391 11.2403 4.7735 11.1511 4.84861 11.076L12.3366 3.575C12.5111 3.40661 12.7441 3.3125 12.9866 3.3125C13.2291 3.3125 13.4621 3.40661 13.6366 3.575L21.1246 11.063C21.2763 11.2147 21.3615 11.4205 21.3615 11.635C21.3615 11.8495 21.2763 12.0553 21.1246 12.207C20.9729 12.3587 20.7672 12.4439 20.5526 12.4439C20.3381 12.4439 20.1323 12.3587 19.9806 12.207L13.8186 6.019Z" fill="#5E7670"/>
</svg>
