<svg width="27" height="27" viewBox="0 0 27 27" fill="none" xmlns="http://www.w3.org/2000/svg">
<path d="M16.7587 24.3C16.1239 24.3027 15.5003 24.1324 14.9549 23.8076C14.4096 23.4827 13.963 23.0154 13.6631 22.4559L10.5959 16.906L4.50201 14.1871C3.9297 13.9317 3.44642 13.5116 3.11381 12.9805C2.78119 12.4493 2.61431 11.8311 2.63444 11.2047C2.65457 10.5783 2.86081 9.9721 3.22684 9.46338C3.59288 8.95467 4.10213 8.56649 4.68966 8.34836L19.2697 2.93351C19.8806 2.70658 20.542 2.6513 21.1821 2.77367C21.8222 2.89604 22.4166 3.19139 22.9007 3.62766C23.3848 4.06393 23.7402 4.62446 23.9283 5.24843C24.1164 5.87239 24.13 6.53596 23.9677 7.16711L20.2457 21.6121C20.0758 22.3079 19.6966 22.9349 19.1593 23.4086C18.6219 23.8822 17.9523 24.1796 17.2406 24.2608C17.081 24.284 16.92 24.2971 16.7587 24.3ZM5.34846 10.125C5.11291 10.2124 4.90873 10.368 4.76196 10.5719C4.61519 10.7759 4.53247 11.0189 4.52436 11.27C4.51625 11.5211 4.58312 11.769 4.71642 11.982C4.84973 12.195 5.04344 12.3634 5.27286 12.4659L11.6557 15.3144C11.8428 15.3979 11.9978 15.5401 12.0971 15.7194L15.3169 21.5433C15.4798 21.8369 15.7271 22.0749 16.0266 22.2265C16.3262 22.3782 16.6644 22.4366 16.9975 22.3942C17.3306 22.3517 17.6433 22.2104 17.8953 21.9885C18.1473 21.7665 18.3269 21.4741 18.4111 21.1491L22.1317 6.70406C22.2081 6.40716 22.2018 6.09499 22.1133 5.80145C22.0248 5.5079 21.8577 5.2442 21.6299 5.03898C21.4021 4.83375 21.1225 4.69485 20.8214 4.63735C20.5202 4.57985 20.2091 4.60594 19.9217 4.71281L5.34711 10.125H5.34846Z" fill="#5E7670"/>
<path d="M14.0402 13.9645C13.8538 13.9648 13.6715 13.9099 13.5162 13.8069C13.3609 13.7038 13.2396 13.5571 13.1674 13.3853C13.0953 13.2134 13.0756 13.0241 13.1108 12.841C13.1459 12.658 13.2345 12.4895 13.3652 12.3566L17.3747 8.28368C17.4618 8.19504 17.5654 8.12441 17.6798 8.07583C17.7941 8.02724 17.9169 8.00166 18.0411 8.00053C18.1654 7.9994 18.2886 8.02275 18.4038 8.06925C18.519 8.11575 18.6239 8.18448 18.7126 8.27153C18.8012 8.35858 18.8718 8.46223 18.9204 8.57657C18.969 8.69092 18.9946 8.81371 18.9957 8.93794C18.9968 9.06217 18.9735 9.18541 18.927 9.30061C18.8805 9.41582 18.8118 9.52074 18.7247 9.60938L14.7152 13.6823C14.6271 13.7719 14.522 13.8429 14.4061 13.8914C14.2902 13.9398 14.1658 13.9647 14.0402 13.9645Z" fill="#5E7670"/>
</svg>
